<svg width="46" height="46" viewBox="0 0 46 46" fill="none" xmlns="http://www.w3.org/2000/svg">
<path d="M40.4688 1.09375H5.46875C3.0525 1.09375 1.09375 3.0525 1.09375 5.46875V40.4688C1.09375 42.885 3.0525 44.8438 5.46875 44.8438H40.4688C42.885 44.8438 44.8438 42.885 44.8438 40.4688V5.46875C44.8438 3.0525 42.885 1.09375 40.4688 1.09375Z" stroke="#C5A46D" stroke-width="2.1875"/>
<path d="M18.8438 14.2812H36.3438M18.8438 23.0312H36.3438M18.8438 31.7812H27.5938" stroke="#C5A46D" stroke-width="2.1875" stroke-linecap="round"/>
<path d="M12.2812 16.4688C13.4894 16.4688 14.4688 15.4894 14.4688 14.2812C14.4688 13.0731 13.4894 12.0938 12.2812 12.0938C11.0731 12.0938 10.0938 13.0731 10.0938 14.2812C10.0938 15.4894 11.0731 16.4688 12.2812 16.4688Z" fill="#C5A46D"/>
<path d="M12.2812 25.2188C13.4894 25.2188 14.4688 24.2394 14.4688 23.0312C14.4688 21.8231 13.4894 20.8438 12.2812 20.8438C11.0731 20.8438 10.0938 21.8231 10.0938 23.0312C10.0938 24.2394 11.0731 25.2188 12.2812 25.2188Z" fill="#C5A46D"/>
<path d="M12.2812 33.9688C13.4894 33.9688 14.4688 32.9894 14.4688 31.7812C14.4688 30.5731 13.4894 29.5938 12.2812 29.5938C11.0731 29.5938 10.0938 30.5731 10.0938 31.7812C10.0938 32.9894 11.0731 33.9688 12.2812 33.9688Z" fill="#C5A46D"/>
</svg>
