<svg width="18" height="26" viewBox="0 0 18 26" fill="none" xmlns="http://www.w3.org/2000/svg">
<path d="M3.45594 7.62939e-05C4.41594 7.62939e-05 5.21594 0.384075 5.85594 1.15207C6.55994 1.92007 6.91194 3.00808 6.91194 4.41608C6.91194 6.52808 6.78394 8.51208 6.52794 10.3681C6.27194 12.1601 5.91994 14.2081 5.47194 16.5121C5.08794 18.7521 4.63994 21.6321 4.12794 25.1521H2.78394C2.33594 21.8241 1.88794 19.0401 1.43994 16.8001C0.991938 14.4961 0.639938 12.4161 0.383938 10.5601C0.127938 8.64008 -6.2108e-05 6.62407 -6.2108e-05 4.51208C-6.2108e-05 3.10407 0.319938 2.01608 0.959938 1.24808C1.66394 0.480076 2.49594 0.0640755 3.45594 7.62939e-05ZM13.9199 7.62939e-05C14.8799 7.62939e-05 15.6799 0.384075 16.3199 1.15207C17.0239 1.92007 17.3759 3.00808 17.3759 4.41608C17.3759 6.52808 17.2479 8.51208 16.9919 10.3681C16.7359 12.1601 16.3839 14.2081 15.9359 16.5121C15.5519 18.7521 15.1039 21.6321 14.5919 25.1521H13.2479C12.7999 21.8241 12.3519 19.0401 11.9039 16.8001C11.4559 14.4961 11.1039 12.4161 10.8479 10.5601C10.5919 8.64008 10.4639 6.62407 10.4639 4.51208C10.4639 3.10407 10.7839 2.01608 11.4239 1.24808C12.1279 0.480076 12.9599 0.0640755 13.9199 7.62939e-05Z" fill="#C5A46D"/>
</svg>
