<svg width="16" height="17" viewBox="0 0 16 17" fill="none" xmlns="http://www.w3.org/2000/svg">
<g clip-path="url(#clip0_1_1727)">
<path d="M10.3181 8.84326L11.3281 14.5273C11.3394 14.5942 11.33 14.663 11.3012 14.7244C11.2723 14.7859 11.2254 14.8371 11.1667 14.8711C11.108 14.9052 11.0403 14.9205 10.9726 14.9151C10.905 14.9096 10.8406 14.8836 10.7881 14.8406L8.40141 13.0493C8.2862 12.9632 8.14623 12.9167 8.00241 12.9167C7.85859 12.9167 7.71863 12.9632 7.60341 13.0493L5.21274 14.8399C5.16029 14.8829 5.09599 14.9088 5.02841 14.9143C4.96083 14.9198 4.89319 14.9045 4.83452 14.8705C4.77585 14.8365 4.72893 14.7855 4.70002 14.7242C4.67112 14.6628 4.6616 14.5941 4.67274 14.5273L5.68208 8.84326" stroke="#C5A46E" stroke-width="1.33333" stroke-linecap="round" stroke-linejoin="round"/>
<path d="M8 9.5835C10.2091 9.5835 12 7.79264 12 5.5835C12 3.37436 10.2091 1.5835 8 1.5835C5.79086 1.5835 4 3.37436 4 5.5835C4 7.79264 5.79086 9.5835 8 9.5835Z" stroke="#C5A46E" stroke-width="1.33333" stroke-linecap="round" stroke-linejoin="round"/>
</g>
<defs>
<clipPath id="clip0_1_1727">
<rect width="16" height="16" fill="white" transform="translate(0 0.25)"/>
</clipPath>
</defs>
</svg>
