<svg width="32" height="32" viewBox="0 0 32 32" fill="none" xmlns="http://www.w3.org/2000/svg">
<g clip-path="url(#clip0_114_2)">
<path d="M21.3333 21.3333L25.3333 10.6667L29.3333 21.3333C28.1733 22.2 26.7733 22.6667 25.3333 22.6667C23.8933 22.6667 22.4933 22.2 21.3333 21.3333Z" stroke="#C5A46E" stroke-width="2.66667" stroke-linecap="round" stroke-linejoin="round"/>
<path d="M2.66675 21.3333L6.66675 10.6667L10.6667 21.3333C9.50675 22.2 8.10675 22.6667 6.66675 22.6667C5.22675 22.6667 3.82675 22.2 2.66675 21.3333Z" stroke="#C5A46E" stroke-width="2.66667" stroke-linecap="round" stroke-linejoin="round"/>
<path d="M9.33325 28H22.6666" stroke="#C5A46E" stroke-width="2.66667" stroke-linecap="round" stroke-linejoin="round"/>
<path d="M16 4V28" stroke="#C5A46E" stroke-width="2.66667" stroke-linecap="round" stroke-linejoin="round"/>
<path d="M4 9.33332H6.66667C9.33333 9.33332 13.3333 7.99999 16 6.66666C18.6667 7.99999 22.6667 9.33332 25.3333 9.33332H28" stroke="#C5A46E" stroke-width="2.66667" stroke-linecap="round" stroke-linejoin="round"/>
</g>
<defs>
<clipPath id="clip0_114_2">
<rect width="32" height="32" fill="white"/>
</clipPath>
</defs>
</svg>
