<svg width="20" height="18" viewBox="0 0 20 18" fill="none" xmlns="http://www.w3.org/2000/svg">
<path d="M9.60428 1.16274C9.6408 1.08895 9.69722 1.02685 9.76716 0.983425C9.8371 0.940002 9.91779 0.916992 10.0001 0.916992C10.0824 0.916992 10.1631 0.940002 10.2331 0.983425C10.303 1.02685 10.3594 1.08895 10.396 1.16274L12.3209 5.0619C12.4478 5.31854 12.635 5.54058 12.8665 5.70895C13.098 5.87732 13.3669 5.987 13.6501 6.02857L17.9551 6.65857C18.0367 6.67039 18.1133 6.7048 18.1764 6.7579C18.2394 6.81101 18.2863 6.88069 18.3118 6.95908C18.3373 7.03746 18.3403 7.12141 18.3206 7.20143C18.3009 7.28146 18.2591 7.35436 18.2001 7.4119L15.0868 10.4436C14.8815 10.6437 14.7278 10.8906 14.6391 11.1633C14.5504 11.4359 14.5293 11.726 14.5776 12.0086L15.3126 16.2919C15.327 16.3734 15.3182 16.4574 15.2872 16.5341C15.2562 16.6109 15.2042 16.6774 15.1372 16.7261C15.0702 16.7747 14.9909 16.8036 14.9083 16.8093C14.8257 16.8151 14.7432 16.7975 14.6701 16.7586L10.8218 14.7352C10.5682 14.6021 10.2861 14.5325 9.9997 14.5325C9.7133 14.5325 9.43119 14.6021 9.17762 14.7352L5.33012 16.7586C5.25706 16.7972 5.17461 16.8146 5.09216 16.8088C5.0097 16.8029 4.93055 16.774 4.8637 16.7254C4.79684 16.6768 4.74498 16.6104 4.714 16.5338C4.68302 16.4571 4.67416 16.3733 4.68845 16.2919L5.42262 12.0094C5.47111 11.7267 5.4501 11.4364 5.3614 11.1636C5.27269 10.8908 5.11896 10.6437 4.91345 10.4436L1.80012 7.41274C1.74061 7.35526 1.69844 7.28223 1.67842 7.20197C1.65839 7.1217 1.66131 7.03742 1.68685 6.95873C1.71238 6.88004 1.75951 6.8101 1.82285 6.75689C1.88619 6.70367 1.9632 6.66932 2.04512 6.65774L6.34928 6.02857C6.63283 5.98732 6.90211 5.87778 7.13394 5.70939C7.36577 5.541 7.5532 5.3188 7.68012 5.0619L9.60428 1.16274Z" fill="#C5A46E" stroke="#C5A46E" stroke-width="1.66667" stroke-linecap="round" stroke-linejoin="round"/>
</svg>
