<svg width="17" height="17" viewBox="0 0 17 17" fill="none" xmlns="http://www.w3.org/2000/svg">
<path d="M1.83398 2.21191H5.83398C6.54123 2.21191 7.21951 2.49287 7.7196 2.99296C8.2197 3.49306 8.50065 4.17134 8.50065 4.87858V14.2119C8.50065 13.6815 8.28994 13.1728 7.91487 12.7977C7.53979 12.4226 7.03108 12.2119 6.50065 12.2119H1.83398V2.21191Z" stroke="#C5A46D" stroke-width="1.33333" stroke-linecap="round" stroke-linejoin="round"/>
<path d="M15.1667 2.21191H11.1667C10.4594 2.21191 9.78115 2.49287 9.28105 2.99296C8.78095 3.49306 8.5 4.17134 8.5 4.87858V14.2119C8.5 13.6815 8.71071 13.1728 9.08579 12.7977C9.46086 12.4226 9.96957 12.2119 10.5 12.2119H15.1667V2.21191Z" stroke="#C5A46D" stroke-width="1.33333" stroke-linecap="round" stroke-linejoin="round"/>
</svg>
