<svg width="49" height="49" viewBox="0 0 49 49" fill="none" xmlns="http://www.w3.org/2000/svg">
<g opacity="0.8">
<path d="M28.3125 4.80957H12.3125C11.2516 4.80957 10.2342 5.231 9.48407 5.98114C8.73393 6.73129 8.3125 7.7487 8.3125 8.80957V40.8096C8.3125 41.8704 8.73393 42.8879 9.48407 43.638C10.2342 44.3881 11.2516 44.8096 12.3125 44.8096H36.3125C37.3734 44.8096 38.3908 44.3881 39.1409 43.638C39.8911 42.8879 40.3125 41.8704 40.3125 40.8096V16.8096L28.3125 4.80957Z" stroke="#C5A46D" stroke-width="3"/>
<path d="M28.3125 4.80957V16.8096H40.3125" stroke="#C5A46D" stroke-width="3"/>
<path d="M32.3125 26.8096H16.3125" stroke="#C5A46D" stroke-width="3"/>
<path d="M32.3125 34.8096H16.3125" stroke="#C5A46D" stroke-width="3"/>
<path d="M20.3125 18.8096H18.3125H16.3125" stroke="#C5A46D" stroke-width="3"/>
</g>
</svg>
