<svg width="29" height="29" viewBox="0 0 29 29" fill="none" xmlns="http://www.w3.org/2000/svg">
<path d="M20.4938 24.9697V22.6364C20.4938 21.3987 20.0021 20.2117 19.127 19.3366C18.2518 18.4614 17.0648 17.9697 15.8271 17.9697H6.49381C5.25614 17.9697 4.06915 18.4614 3.19398 19.3366C2.31881 20.2117 1.82715 21.3987 1.82715 22.6364V24.9697" stroke="#C5A46D" stroke-width="2.33333" stroke-linecap="round" stroke-linejoin="round"/>
<path d="M11.1598 13.3031C13.7372 13.3031 15.8265 11.2137 15.8265 8.63639C15.8265 6.05906 13.7372 3.96973 11.1598 3.96973C8.5825 3.96973 6.49316 6.05906 6.49316 8.63639C6.49316 11.2137 8.5825 13.3031 11.1598 13.3031Z" stroke="#C5A46D" stroke-width="2.33333" stroke-linecap="round" stroke-linejoin="round"/>
<path d="M27.4932 24.9699V22.6366C27.4924 21.6026 27.1482 20.5981 26.5148 19.7809C25.8813 18.9637 24.9943 18.3801 23.9932 18.1216" stroke="#C5A46D" stroke-width="2.33333" stroke-linecap="round" stroke-linejoin="round"/>
<path d="M19.3271 4.12158C20.331 4.3786 21.2207 4.9624 21.8561 5.78094C22.4914 6.59949 22.8363 7.60622 22.8363 8.64242C22.8363 9.67861 22.4914 10.6853 21.8561 11.5039C21.2207 12.3224 20.331 12.9062 19.3271 13.1632" stroke="#C5A46D" stroke-width="2.33333" stroke-linecap="round" stroke-linejoin="round"/>
</svg>
